<?xml version="1.0" encoding="UTF-8"?>
<svg width="205px" height="135px" viewBox="0 0 205 135" version="1.1" xmlns="http://www.w3.org/2000/svg" xmlns:xlink="http://www.w3.org/1999/xlink">
    <!-- Generator: Sketch 48.1 (47250) - http://www.bohemiancoding.com/sketch -->
    <title>Artboard</title>
    <desc>Created with Sketch.</desc>
    <defs></defs>
    <g id="Symbols" stroke="none" stroke-width="1" fill="none" fill-rule="evenodd" fill-opacity="0.400000006">
        <g id="Artboard" fill="#D8D8D8">
            <path d="M98,56 L102,61 L106,56 L118,116 L102,128 L86,116 L98,56 Z M115,52 L126,40 L170,40 C155.333333,52 142,57.3333333 130,56 L142.5,72 L123,80 L115,52 Z M90,52 L82,80 L62.5,72 L75,56 C63,57.3333333 49.6666667,52 35,40 L79,40 L90,52 Z M86,16 L117.016125,16 L122,24 L102,48 L82,24 L86,16 Z" id="Combined-Shape"></path>
        </g>
    </g>
</svg>