<?xml version="1.0" encoding="UTF-8"?>
<svg width="213px" height="91px" viewBox="0 0 213 91" version="1.1" xmlns="http://www.w3.org/2000/svg" xmlns:xlink="http://www.w3.org/1999/xlink">
    <!-- Generator: Sketch 48.2 (47327) - http://www.bohemiancoding.com/sketch -->
    <title>logo</title>
    <desc>Created with Sketch.</desc>
    <defs>
        <linearGradient x1="76.0823141%" y1="50%" x2="36.0288592%" y2="18.5402623%" id="linearGradient-1">
            <stop stop-color="#7C0D2D" offset="0%"></stop>
            <stop stop-color="#F63256" offset="100%"></stop>
        </linearGradient>
        <linearGradient x1="0%" y1="32.5832881%" x2="55.4060732%" y2="63.4507333%" id="linearGradient-2">
            <stop stop-color="#820211" offset="0%"></stop>
            <stop stop-color="#790016" stop-opacity="0.5" offset="100%"></stop>
        </linearGradient>
        <linearGradient x1="50%" y1="6.19746228%" x2="26.2645485%" y2="100%" id="linearGradient-3">
            <stop stop-color="#FA769D" stop-opacity="0.2" offset="0%"></stop>
            <stop stop-color="#A60018" stop-opacity="0.5" offset="100%"></stop>
        </linearGradient>
        <linearGradient x1="50%" y1="100%" x2="50%" y2="0%" id="linearGradient-4">
            <stop stop-color="#D80A4A" offset="0%"></stop>
            <stop stop-color="#AF0424" offset="100%"></stop>
        </linearGradient>
        <linearGradient x1="50%" y1="89.3694375%" x2="50%" y2="3.061617e-15%" id="linearGradient-5">
            <stop stop-color="#FF628A" offset="0%"></stop>
            <stop stop-color="#E22043" offset="36.4413772%"></stop>
            <stop stop-color="#A70119" offset="100%"></stop>
        </linearGradient>
        <linearGradient x1="50%" y1="100%" x2="65.2593786%" y2="-8.06461476%" id="linearGradient-6">
            <stop stop-color="#FD5C75" stop-opacity="0.5" offset="0%"></stop>
            <stop stop-color="#C8082C" offset="100%"></stop>
        </linearGradient>
        <linearGradient x1="50%" y1="100%" x2="50%" y2="3.061617e-15%" id="linearGradient-7">
            <stop stop-color="#DF0043" offset="0%"></stop>
            <stop stop-color="#BC0020" offset="100%"></stop>
        </linearGradient>
    </defs>
    <g id="LOGO" stroke="none" stroke-width="1" fill="none" fill-rule="evenodd">
        <g id="logo">
            <g id="diamant-rouge" transform="translate(2.000000, 0.000000)">
                <g id="Group-Copy">
                    <polygon id="Path-2" fill="#D71A3A" points="7.57894737 16.3113208 16.8421053 2.5754717 22.7368421 0 22.7368421 25.754717 27.7894737 32.6226415 32 38.6320755 32 71.254717 25.2631579 85.8490566 20.2105263 91 14.3157895 83.2735849 5.89473684 72.9716981 0 67.8207547 5.89473684 30.9056604"></polygon>
                    <polygon id="Path-3" fill="url(#linearGradient-1)" points="22.7368421 -1.42108547e-14 15.1578947 11.1603774 7.57894737 16.3113208 16.8421053 2.5754717"></polygon>
                    <polygon id="Path-4" fill="url(#linearGradient-2)" points="22.7368421 3.55271368e-15 15.1578947 11.1603774 18.5263158 24.8962264 27.7894737 32.6226415 22.7368421 25.754717"></polygon>
                    <polygon id="Path-5" fill="url(#linearGradient-3)" points="18.5263158 24.8962264 27.7894737 32.6226415 15.1578947 45.5"></polygon>
                    <polygon id="Path-7" fill="url(#linearGradient-4)" points="5.89473684 30.9056604 15.1578947 45.5 18.5263158 24.8962264 15.1578947 11.1603774 7.57894737 16.3113208"></polygon>
                    <path d="M0,67.8207547 L15.1578947,45.5 L27.7894737,32.6226415 C30.5964912,36.6289308 32,38.6320755 32,38.6320755 C32,38.6320755 32,49.5062893 32,71.254717 L25.2631579,85.8490566 L20.2105263,91 L5.89473684,72.9716981 L0,67.8207547 Z" id="Path-9" fill="url(#linearGradient-5)"></path>
                    <polyline id="Path-11" stroke-opacity="0.5" stroke="#7C202D" stroke-width="0.400000006" points="22.7368421 0 15.1578947 11.1603774 7.57894737 16.3113208"></polyline>
                    <path d="M18.5263158,24.8962264 L15.1578947,11.1603774" id="Path-12" stroke="#971127" stroke-width="0.400000006"></path>
                    <polygon id="Path-6" fill="url(#linearGradient-6)" points="15.1578947 45.5 0 67.8207547 5.89473684 30.9056604"></polygon>
                    <polyline id="Path-10" stroke="#F15A7C" stroke-width="0.300000012" points="0 67.8207547 15.1578947 45.5 27.7894737 32.6226415 18.5263158 24.8962264"></polyline>
                    <polygon id="Path-13" fill="url(#linearGradient-7)" points="25.2631579 85.8490566 6.73684211 72.1132075 0 67.8207547 5.89473684 72.9716981 20.2105263 91"></polygon>
                </g>
            </g>
            <g id="text--outlines" transform="translate(49.000000, 15.000000)" fill="#FFFFFF">
                <path d="M7.34,32.05 L0.27,32.05 L0.27,27.22 L19.87,27.22 L19.87,32.05 L12.8,32.05 L12.8,52 L7.34,52 L7.34,32.05 Z M22.635,27.22 L28.095,27.22 L28.095,36.46 L38.7,36.46 L38.7,27.22 L44.16,27.22 L44.16,52 L38.7,52 L38.7,41.29 L28.095,41.29 L28.095,52 L22.635,52 L22.635,27.22 Z M49.41,27.22 L66.245,27.22 L66.245,32.26 L54.87,32.26 L54.87,36.88 L65.615,36.88 L65.615,41.92 L54.87,41.92 L54.87,46.96 L66.875,46.96 L66.875,52 L49.41,52 L49.41,27.22 Z M81.61,27.22 L91.2,27.22 C92.4600063,27.22 93.6558277,27.3424988 94.7875,27.5875 C95.9191723,27.8325012 96.9108291,28.2408305 97.7625,28.8125 C98.6141709,29.3841695 99.2908308,30.1541618 99.7925,31.1225 C100.294169,32.0908382 100.545,33.2983261 100.545,34.745 C100.545,36.4950087 100.090005,37.9824939 99.18,39.2075 C98.2699954,40.4325061 96.9400087,41.2083317 95.19,41.535 L101.49,52 L94.945,52 L89.765,42.095 L87.07,42.095 L87.07,52 L81.61,52 L81.61,27.22 Z M87.07,37.475 L90.29,37.475 C90.7800024,37.475 91.2991639,37.4575002 91.8475,37.4225 C92.3958361,37.3874998 92.8916644,37.2825009 93.335,37.1075 C93.7783355,36.9324991 94.1458319,36.6583352 94.4375,36.285 C94.7291681,35.9116648 94.875,35.38667 94.875,34.71 C94.875,34.0799969 94.7466679,33.5783352 94.49,33.205 C94.233332,32.8316648 93.9066686,32.5458343 93.51,32.3475 C93.1133313,32.1491657 92.6583359,32.0150003 92.145,31.945 C91.6316641,31.8749996 91.1300024,31.84 90.64,31.84 L87.07,31.84 L87.07,37.475 Z M104.22,27.22 L109.68,27.22 L109.68,52 L104.22,52 L104.22,27.22 Z M114.86,27.22 L131.485,27.22 L131.485,32.26 L120.32,32.26 L120.32,37.3 L130.645,37.3 L130.645,42.34 L120.32,42.34 L120.32,52 L114.86,52 L114.86,27.22 Z M140.2,32.05 L133.13,32.05 L133.13,27.22 L152.73,27.22 L152.73,32.05 L145.66,32.05 L145.66,52 L140.2,52 L140.2,32.05 Z" id="the-rift"></path>
                <path d="M7.632,7.506 C7.37999874,7.09799796 7.0440021,6.80100093 6.624,6.615 C6.2039979,6.42899907 5.76600228,6.336 5.31,6.336 C4.97399832,6.336 4.64400162,6.37799958 4.32,6.462 C3.99599838,6.54600042 3.70500129,6.67199916 3.447,6.84 C3.18899871,7.00800084 2.98200078,7.22999862 2.826,7.506 C2.66999922,7.78200138 2.592,8.10599814 2.592,8.478 C2.592,8.76600144 2.63699955,9.02099889 2.727,9.243 C2.81700045,9.46500111 2.96399898,9.6659991 3.168,9.846 C3.37200102,10.0260009 3.64799826,10.1939992 3.996,10.35 C4.34400174,10.5060008 4.76999748,10.6619992 5.274,10.818 C5.76600246,10.9740008 6.24299769,11.1419991 6.705,11.322 C7.16700231,11.5020009 7.57499823,11.7299986 7.929,12.006 C8.28300177,12.2820014 8.56499895,12.6269979 8.775,13.041 C8.98500105,13.4550021 9.09,13.9739969 9.09,14.598 C9.09,15.2340032 8.96400126,15.7859977 8.712,16.254 C8.45999874,16.7220023 8.12700207,17.1089985 7.713,17.415 C7.29899793,17.7210015 6.8220027,17.9489992 6.282,18.099 C5.7419973,18.2490008 5.18400288,18.324 4.608,18.324 C4.23599814,18.324 3.86400186,18.2910003 3.492,18.225 C3.11999814,18.1589997 2.76300171,18.0570007 2.421,17.919 C2.07899829,17.7809993 1.7580015,17.6010011 1.458,17.379 C1.1579985,17.1569989 0.90000108,16.8840016 0.684,16.56 L1.98,15.498 C2.25600138,15.9660023 2.63999754,16.3199988 3.132,16.56 C3.62400246,16.8000012 4.14599724,16.92 4.698,16.92 C5.02200162,16.92 5.34899835,16.8720005 5.679,16.776 C6.00900165,16.6799995 6.30599868,16.5390009 6.57,16.353 C6.83400132,16.1669991 7.04999916,15.9360014 7.218,15.66 C7.38600084,15.3839986 7.47,15.0660018 7.47,14.706 C7.47,14.309998 7.40400066,13.9890012 7.272,13.743 C7.13999934,13.4969988 6.93600138,13.2840009 6.66,13.104 C6.38399862,12.9239991 6.0360021,12.7620007 5.616,12.618 C5.1959979,12.4739993 4.70400282,12.306001 4.14,12.114 C3.68399772,11.9699993 3.26400192,11.8050009 2.88,11.619 C2.49599808,11.4329991 2.16300141,11.2050013 1.881,10.935 C1.59899859,10.6649986 1.37700081,10.3410019 1.215,9.963 C1.05299919,9.58499811 0.972,9.13200264 0.972,8.604 C0.972,7.99199694 1.0919988,7.45800228 1.332,7.002 C1.5720012,6.54599772 1.89599796,6.16500153 2.304,5.859 C2.71200204,5.55299847 3.17399742,5.32200078 3.69,5.166 C4.20600258,5.00999922 4.74599718,4.932 5.31,4.932 C6.0300036,4.932 6.68699703,5.04299889 7.281,5.265 C7.87500297,5.48700111 8.40599766,5.87399724 8.874,6.426 L7.632,7.506 Z M11.592,5.256 L13.104,5.256 L13.104,10.764 L13.32,10.764 L19.116,5.256 L21.294,5.256 L14.994,11.07 L21.6,18 L19.386,18 L13.32,11.52 L13.104,11.52 L13.104,18 L11.592,18 L11.592,5.256 Z M22.932,5.256 L24.444,5.256 L24.444,18 L22.932,18 L22.932,5.256 Z M27.612,5.256 L29.52,5.256 L36.9,15.84 L36.936,15.84 L36.936,5.256 L38.448,5.256 L38.448,18 L36.54,18 L29.16,7.416 L29.124,7.416 L29.124,18 L27.612,18 L27.612,5.256 Z M47.664,7.506 C47.4119987,7.09799796 47.0760021,6.80100093 46.656,6.615 C46.2359979,6.42899907 45.7980023,6.336 45.342,6.336 C45.0059983,6.336 44.6760016,6.37799958 44.352,6.462 C44.0279984,6.54600042 43.7370013,6.67199916 43.479,6.84 C43.2209987,7.00800084 43.0140008,7.22999862 42.858,7.506 C42.7019992,7.78200138 42.624,8.10599814 42.624,8.478 C42.624,8.76600144 42.6689996,9.02099889 42.759,9.243 C42.8490005,9.46500111 42.995999,9.6659991 43.2,9.846 C43.404001,10.0260009 43.6799983,10.1939992 44.028,10.35 C44.3760017,10.5060008 44.8019975,10.6619992 45.306,10.818 C45.7980025,10.9740008 46.2749977,11.1419991 46.737,11.322 C47.1990023,11.5020009 47.6069982,11.7299986 47.961,12.006 C48.3150018,12.2820014 48.596999,12.6269979 48.807,13.041 C49.0170011,13.4550021 49.122,13.9739969 49.122,14.598 C49.122,15.2340032 48.9960013,15.7859977 48.744,16.254 C48.4919987,16.7220023 48.1590021,17.1089985 47.745,17.415 C47.3309979,17.7210015 46.8540027,17.9489992 46.314,18.099 C45.7739973,18.2490008 45.2160029,18.324 44.64,18.324 C44.2679981,18.324 43.8960019,18.2910003 43.524,18.225 C43.1519981,18.1589997 42.7950017,18.0570007 42.453,17.919 C42.1109983,17.7809993 41.7900015,17.6010011 41.49,17.379 C41.1899985,17.1569989 40.9320011,16.8840016 40.716,16.56 L42.012,15.498 C42.2880014,15.9660023 42.6719975,16.3199988 43.164,16.56 C43.6560025,16.8000012 44.1779972,16.92 44.73,16.92 C45.0540016,16.92 45.3809984,16.8720005 45.711,16.776 C46.0410017,16.6799995 46.3379987,16.5390009 46.602,16.353 C46.8660013,16.1669991 47.0819992,15.9360014 47.25,15.66 C47.4180008,15.3839986 47.502,15.0660018 47.502,14.706 C47.502,14.309998 47.4360007,13.9890012 47.304,13.743 C47.1719993,13.4969988 46.9680014,13.2840009 46.692,13.104 C46.4159986,12.9239991 46.0680021,12.7620007 45.648,12.618 C45.2279979,12.4739993 44.7360028,12.306001 44.172,12.114 C43.7159977,11.9699993 43.2960019,11.8050009 42.912,11.619 C42.5279981,11.4329991 42.1950014,11.2050013 41.913,10.935 C41.6309986,10.6649986 41.4090008,10.3410019 41.247,9.963 C41.0849992,9.58499811 41.004,9.13200264 41.004,8.604 C41.004,7.99199694 41.1239988,7.45800228 41.364,7.002 C41.6040012,6.54599772 41.927998,6.16500153 42.336,5.859 C42.744002,5.55299847 43.2059974,5.32200078 43.722,5.166 C44.2380026,5.00999922 44.7779972,4.932 45.342,4.932 C46.0620036,4.932 46.718997,5.04299889 47.313,5.265 C47.907003,5.48700111 48.4379977,5.87399724 48.906,6.426 L47.664,7.506 Z M62.55,18.324 C61.5779951,18.324 60.6870041,18.1560017 59.877,17.82 C59.066996,17.4839983 58.365003,17.019003 57.771,16.425 C57.176997,15.830997 56.7150017,15.1230041 56.385,14.301 C56.0549984,13.4789959 55.89,12.5880048 55.89,11.628 C55.89,10.6679952 56.0549984,9.77700411 56.385,8.955 C56.7150017,8.13299589 57.176997,7.42500297 57.771,6.831 C58.365003,6.23699703 59.066996,5.77200168 59.877,5.436 C60.6870041,5.09999832 61.5779951,4.932 62.55,4.932 C63.5220049,4.932 64.412996,5.09999832 65.223,5.436 C66.0330041,5.77200168 66.734997,6.23699703 67.329,6.831 C67.923003,7.42500297 68.3849984,8.13299589 68.715,8.955 C69.0450017,9.77700411 69.21,10.6679952 69.21,11.628 C69.21,12.5880048 69.0450017,13.4789959 68.715,14.301 C68.3849984,15.1230041 67.923003,15.830997 67.329,16.425 C66.734997,17.019003 66.0330041,17.4839983 65.223,17.82 C64.412996,18.1560017 63.5220049,18.324 62.55,18.324 Z M62.55,16.92 C63.2940037,16.92 63.9749969,16.7820014 64.593,16.506 C65.2110031,16.2299986 65.7419978,15.8520024 66.186,15.372 C66.6300022,14.8919976 66.9749988,14.3310032 67.221,13.689 C67.4670012,13.0469968 67.59,12.3600037 67.59,11.628 C67.59,10.8959963 67.4670012,10.2090032 67.221,9.567 C66.9749988,8.92499679 66.6300022,8.3640024 66.186,7.884 C65.7419978,7.4039976 65.2110031,7.02600138 64.593,6.75 C63.9749969,6.47399862 63.2940037,6.336 62.55,6.336 C61.8059963,6.336 61.1250031,6.47399862 60.507,6.75 C59.8889969,7.02600138 59.3580022,7.4039976 58.914,7.884 C58.4699978,8.3640024 58.1250012,8.92499679 57.879,9.567 C57.6329988,10.2090032 57.51,10.8959963 57.51,11.628 C57.51,12.3600037 57.6329988,13.0469968 57.879,13.689 C58.1250012,14.3310032 58.4699978,14.8919976 58.914,15.372 C59.3580022,15.8520024 59.8889969,16.2299986 60.507,16.506 C61.1250031,16.7820014 61.8059963,16.92 62.55,16.92 Z M71.64,5.256 L79.542,5.256 L79.542,6.66 L73.152,6.66 L73.152,10.872 L79.092,10.872 L79.092,12.276 L73.152,12.276 L73.152,18 L71.64,18 L71.64,5.256 Z" id="Skins-of"></path>
            </g>
        </g>
    </g>
</svg>