<?xml version="1.0" encoding="UTF-8"?>
<svg width="895px" height="600px" viewBox="0 0 895 600" version="1.1" xmlns="http://www.w3.org/2000/svg" xmlns:xlink="http://www.w3.org/1999/xlink">
    <!-- Generator: Sketch 46.2 (44496) - http://www.bohemiancoding.com/sketch -->
    <title>Combined Shape Copy 2</title>
    <desc>Created with Sketch.</desc>
    <defs></defs>
    <g id="Page-1" stroke="none" stroke-width="1" fill="none" fill-rule="evenodd" fill-opacity="0.8">
        <g id="Desktop-HD-Copy" transform="translate(-121.000000, -1403.000000)" fill="#001C22">
            <g id="GROUP-CORKI" transform="translate(121.000000, 1281.000000)">
                <path d="M236.836364,122 L5,122 L5,122 C2.23857625,122 -3.38176876e-16,124.238576 0,127 L0,127 L0,717 C3.38176876e-16,719.761424 2.23857625,722 5,722 L890,722 C892.761424,722 895,719.761424 895,717 L895,717 L895,127 C895,124.238576 892.761424,122 890,122 L658.163636,122 C642.712947,152.753516 610.879502,173.857143 574.117041,173.857143 L320.882959,173.857143 C284.120498,173.857143 252.287053,152.753516 236.836368,122.000008 Z" id="Combined-Shape-Copy-2"></path>
            </g>
        </g>
    </g>
</svg>