<?xml version="1.0" encoding="UTF-8"?>
<svg width="152px" height="138px" viewBox="0 0 152 138" version="1.1" xmlns="http://www.w3.org/2000/svg" xmlns:xlink="http://www.w3.org/1999/xlink">
    <!-- Generator: Sketch 48.1 (47250) - http://www.bohemiancoding.com/sketch -->
    <title>logo-riot-2</title>
    <desc>Created with Sketch.</desc>
    <defs>
        <linearGradient x1="50%" y1="0%" x2="50%" y2="100%" id="linearGradient-1">
            <stop stop-color="#F7D15F" offset="0%"></stop>
            <stop stop-color="#EFA550" offset="100%"></stop>
        </linearGradient>
        <path d="M18,56.6192519 C29.0959771,54.0483635 39.3677162,43.5086129 48.8152172,25 C52.6630874,27.7890232 61.4497417,34.8128477 75.1751802,46.0714734 L88.9358086,33.5260809 L103.122717,42.3062451 L114.602656,29.7998474 L132.051052,45.0710425 C127.449775,54.050391 129.432758,66.0002617 138,80.9206545 C131.746993,86.3971336 125.948596,90.4101528 120.60481,92.9597122 C113.758662,81.9694938 109.588151,71.8925504 108.093278,62.728882 C107.377984,68.399993 105.828582,80.9206545 115.817519,94.9925756 C110.668025,98.2229125 106.436424,100.173174 103.122717,100.84336 C92.6389124,89.7551467 86.3444369,78.7296555 84.2392906,67.7668858 C83.9133547,83.0640316 88.1901438,95.0390104 97.0696578,103.691822 C92.4900171,105.619213 87.2075125,107.248589 81.2221439,108.579951 C71.0099448,96.8866994 63.1533734,81.5081195 60.2902366,67.7668858 C60.2902366,84.5621034 64.7840866,99.1169855 73.7717865,111.431532 C64.5746056,114 58.596817,114.642117 55.8384207,113.357883 C47.8797692,105.114147 48.8152172,100.84336 42.8883243,91.1060523 C38.9370623,84.6145141 30.6409542,73.118914 18,56.6192519 Z M67,121.006335 C82.9951376,118.122495 95.9951376,114.120383 106,109 C102.260745,121.879347 84.3408282,130.969627 82.0715661,130.999909 C80.5587247,131.020097 75.5348693,127.688905 67,121.006335 Z" id="path-2"></path>
    </defs>
    <g id="logo-riot-2" stroke="none" stroke-width="1" fill="none" fill-rule="evenodd" transform="translate(-2.000000, -9.000000)" stroke-linejoin="round">
        <g>
            <use fill="url(#linearGradient-1)" fill-rule="evenodd" xlink:href="#path-2"></use>
            <path stroke="#8D3D35" stroke-width="16" d="M51.3007683,37.0188829 C51.6320042,36.4694439 51.9618214,35.9122188 52.2902366,35.3472277 L52.2902366,37.8057901 C55.5142186,40.3745533 59.4977494,43.593016 64.2293519,47.4526357 L52.2902366,-9.84751606 L52.2902366,26.7737823 L48.8152172,25 L44.12023,31.4774296 C45.6447378,32.5824273 48.0428473,34.4329998 51.3007683,37.0188829 Z M52.2902366,35.3472277 C53.5266104,33.2202243 54.743114,30.9831548 55.9406371,28.6370857 L52.2902366,26.7737823 L52.2902366,35.3472277 Z M76.4947084,55.6941465 L88.0450598,45.1638358 L87.4390385,42.0079163 L89.8619257,43.5074219 L94.3255902,39.4379549 L87.0747268,40.1107251 L77.8502737,-7.92657945 L76.4947084,55.6941465 Z M87.0747268,40.1107251 L84.725737,40.3286757 L87.4390385,42.0079163 L87.0747268,40.1107251 Z M101.542496,50.7364334 L104.540584,52.591926 L113.035664,43.3372728 L112.221638,38.3472394 L115.212956,40.9653024 L120.496193,35.209674 L111.787458,35.6856904 L107.080316,6.83060146 L101.542496,50.7364334 Z M111.787458,35.6856904 L109.333867,35.8198029 L112.221638,38.3472394 L111.787458,35.6856904 Z M104.692655,91.9451252 C105.494966,93.5709549 106.397502,95.187921 107.404665,96.7948166 L108.935785,95.3471569 C107.739344,94.0817396 106.605701,92.8218315 105.534429,91.5674989 C105.245403,91.7021303 104.964757,91.8279948 104.692655,91.9451252 Z M83.8070772,99.7193122 C84.6661379,101.155254 85.5985007,102.542256 86.6043339,103.879462 L87.247708,103.317577 C86.205437,102.124148 85.1890477,100.887006 84.2021913,99.6134876 C84.0709545,99.6489285 83.9392498,99.6842035 83.8070772,99.7193122 Z M74.8929664,35.5030939 L88.0096915,23.5447398 L101.70485,32.0205641 L113.992356,18.6343925 L142.017972,43.1629883 L139.170724,48.7193673 C136.039502,54.8299165 137.582327,64.1273024 144.937657,76.9370739 L148.201196,82.620733 L143.270815,86.9388359 C136.504485,92.8648914 130.118647,97.2844733 124.049673,100.180025 L117.686168,103.216099 C114.051929,105.34553 110.756589,106.905548 107.73481,107.882906 L100.172911,111.065412 C96.1134063,112.773897 91.6077623,114.252908 86.653045,115.510713 L87.034763,116.033726 L75.9235871,119.136709 C64.8602912,122.226321 57.6063434,123.00552 52.4618537,120.610386 L51.1148908,119.983277 L50.0829235,118.914343 C46.4731038,115.175217 44.1165494,111.822626 42.1759063,107.914257 C41.6879719,106.931579 41.2467736,105.964217 40.6909254,104.684174 C38.230016,99.0170377 37.855813,98.224622 36.0546848,95.2655441 C32.2972535,89.0924507 24.1223077,77.7647406 11.6495165,61.484574 L4.09828349,51.6282933 L16.1942704,48.8257071 C24.5156227,46.8976869 33.2091885,37.9772875 41.6897974,21.3629143 L45.9403059,13.0357369 L53.5102045,18.5225704 C56.9927232,21.0467786 64.0789388,26.6761598 74.8929664,35.5030939 Z M82.3692117,122.355447 C81.7036692,122.691251 81.1274263,122.951985 80.7095485,123.11377 C80.5839417,123.1624 80.5140518,123.186199 80.5306582,123.181582 C80.8796303,123.084579 81.2873294,123.009662 81.9648216,123.000621 C82.8334051,122.98903 83.4341785,123.111768 83.9286685,123.280899 C84.0188972,123.31176 83.9942569,123.300991 83.8935366,123.249974 C83.5305166,123.066095 83.0152181,122.765586 82.3692117,122.355447 Z M65.5805281,113.133273 C80.856773,110.379046 93.1261194,106.601869 102.355282,101.878481 L118.848641,93.4373535 L113.682755,111.230531 C111.447082,118.930999 105.817349,125.62214 98.2554088,131.240096 C92.4100322,135.582773 85.8597354,138.950071 82.1783106,138.999197 C77.7771081,139.057927 73.2144763,136.032562 62.0681117,127.305261 L48.0131198,116.300585 L65.5805281,113.133273 Z"></path>
            <path stroke="#252525" stroke-width="10" d="M75.0002631,39.4648992 L88.3569854,27.2877427 L102.23655,35.8776945 L114.221219,22.8214381 L138.280377,43.8785086 L136.500847,47.3512455 C132.818355,54.5375945 134.526239,64.8296621 142.336036,78.4309166 L144.375748,81.9832036 L141.29426,84.6820179 C134.720425,90.4394822 128.554878,94.7066031 122.757849,97.4724076 L118.72402,99.3969771 L118.578312,99.1630703 L118.47455,99.228161 C113.668311,102.243171 109.50669,104.276427 105.892764,105.308281 L105.960856,105.374634 L99.0091912,108.300316 C94.1377248,110.350524 88.5717657,112.067331 82.3077908,113.460665 L81.5636081,113.626198 L82.0611468,114.307903 L75.1166619,116.247268 C64.7531591,119.141451 57.977771,119.869244 53.7280663,117.890697 L52.8862145,117.498754 L52.241235,116.830671 C48.8461997,113.314023 46.6675151,110.214481 44.8629014,106.580069 C44.4017501,105.651331 43.9798828,104.726353 43.4426791,103.489247 C40.924599,97.6904539 40.5158171,96.8248138 38.6172996,93.7057347 C34.7871818,87.4132245 26.5668001,76.0225556 14.0309478,59.6600782 L9.31142718,53.4999028 L16.871419,51.7482864 C26.2332556,49.5791906 35.5186364,40.0515345 44.3618298,22.7268214 L47.0183977,17.5223356 L51.7495843,20.9516065 C55.3802669,23.5832072 63.0996687,29.7313619 75.0002631,39.4648992 Z M66.1128301,116.085671 C81.6586597,113.282839 94.2020012,109.421312 103.722051,104.549051 L114.030401,99.273346 L110.801722,110.394082 C108.781719,117.351704 103.551086,123.568501 96.4663313,128.831943 C91.1090059,132.812034 84.9824302,135.961511 82.1382814,135.999464 C78.8202143,136.043741 74.0846237,132.90369 63.9175698,124.943164 L55.1331999,118.065241 L66.1128301,116.085671 Z"></path>
        </g>
    </g>
</svg>