<?xml version="1.0" encoding="UTF-8"?>
<svg width="230px" height="191px" viewBox="0 0 230 191" version="1.1" xmlns="http://www.w3.org/2000/svg" xmlns:xlink="http://www.w3.org/1999/xlink">
    <!-- Generator: Sketch 48.2 (47327) - http://www.bohemiancoding.com/sketch -->
    <title>runeterra-logo</title>
    <desc>Created with Sketch.</desc>
    <defs>
        <linearGradient x1="50%" y1="2.33976403%" x2="50%" y2="100%" id="linearGradient-1">
            <stop stop-color="#E3E3E3" offset="0%"></stop>
            <stop stop-color="#BEBEBE" offset="100%"></stop>
        </linearGradient>
        <linearGradient x1="76.0823141%" y1="50%" x2="36.0288592%" y2="18.5402623%" id="linearGradient-2">
            <stop stop-color="#7C0D2D" offset="0%"></stop>
            <stop stop-color="#F63256" offset="100%"></stop>
        </linearGradient>
        <linearGradient x1="0%" y1="32.5832881%" x2="55.4060732%" y2="63.4507333%" id="linearGradient-3">
            <stop stop-color="#820211" offset="0%"></stop>
            <stop stop-color="#790016" stop-opacity="0.5" offset="100%"></stop>
        </linearGradient>
        <linearGradient x1="50%" y1="6.19746228%" x2="26.2645485%" y2="100%" id="linearGradient-4">
            <stop stop-color="#FA769D" stop-opacity="0.2" offset="0%"></stop>
            <stop stop-color="#A60018" stop-opacity="0.5" offset="100%"></stop>
        </linearGradient>
        <linearGradient x1="50%" y1="100%" x2="50%" y2="0%" id="linearGradient-5">
            <stop stop-color="#D80A4A" offset="0%"></stop>
            <stop stop-color="#AF0424" offset="100%"></stop>
        </linearGradient>
        <linearGradient x1="50%" y1="89.3694375%" x2="50%" y2="3.061617e-15%" id="linearGradient-6">
            <stop stop-color="#FF628A" offset="0%"></stop>
            <stop stop-color="#E22043" offset="36.4413772%"></stop>
            <stop stop-color="#A70119" offset="100%"></stop>
        </linearGradient>
        <linearGradient x1="50%" y1="100%" x2="65.2593786%" y2="-8.06461476%" id="linearGradient-7">
            <stop stop-color="#FD5C75" stop-opacity="0.5" offset="0%"></stop>
            <stop stop-color="#C8082C" offset="100%"></stop>
        </linearGradient>
        <linearGradient x1="50%" y1="100%" x2="50%" y2="3.061617e-15%" id="linearGradient-8">
            <stop stop-color="#DF0043" offset="0%"></stop>
            <stop stop-color="#BC0020" offset="100%"></stop>
        </linearGradient>
        <path d="M0.7075,20.22 L10.2975,20.22 C11.5575063,20.22 12.7533277,20.3424988 13.885,20.5875 C15.0166723,20.8325012 16.0083291,21.2408305 16.86,21.8125 C17.7116709,22.3841695 18.3883308,23.1541618 18.89,24.1225 C19.3916692,25.0908382 19.6425,26.2983261 19.6425,27.745 C19.6425,29.4950087 19.1875045,30.9824939 18.2775,32.2075 C17.3674954,33.4325061 16.0375087,34.2083317 14.2875,34.535 L20.5875,45 L14.0425,45 L8.8625,35.095 L6.1675,35.095 L6.1675,45 L0.7075,45 L0.7075,20.22 Z M6.1675,30.475 L9.3875,30.475 C9.87750245,30.475 10.3966639,30.4575002 10.945,30.4225 C11.4933361,30.3874998 11.9891644,30.2825009 12.4325,30.1075 C12.8758355,29.9324991 13.2433319,29.6583352 13.535,29.285 C13.8266681,28.9116648 13.9725,28.3866701 13.9725,27.71 C13.9725,27.0799969 13.8441679,26.5783352 13.5875,26.205 C13.330832,25.8316648 13.0041686,25.5458343 12.6075,25.3475 C12.2108313,25.1491657 11.7558359,25.0150003 11.2425,24.945 C10.7291641,24.8749996 10.2275024,24.84 9.7375,24.84 L6.1675,24.84 L6.1675,30.475 Z M44.2825,35.445 C44.2825,36.9150073 44.0608355,38.2683271 43.6175,39.505 C43.1741644,40.7416729 42.5150044,41.8149954 41.64,42.725 C40.7649956,43.6350045 39.6741732,44.3466641 38.3675,44.86 C37.0608268,45.3733359 35.5558418,45.63 33.8525,45.63 C32.1258247,45.63 30.6091732,45.3733359 29.3025,44.86 C27.9958268,44.3466641 26.9050044,43.6350045 26.03,42.725 C25.1549956,41.8149954 24.4958355,40.7416729 24.0525,39.505 C23.6091644,38.2683271 23.3875,36.9150073 23.3875,35.445 L23.3875,20.22 L28.8475,20.22 L28.8475,35.235 C28.8475,36.0050039 28.9699988,36.7166634 29.215,37.37 C29.4600012,38.0233366 29.8041644,38.5891643 30.2475,39.0675 C30.6908355,39.5458357 31.2216636,39.9191653 31.84,40.1875 C32.4583364,40.4558347 33.129163,40.59 33.8525,40.59 C34.5758369,40.59 35.2408303,40.4558347 35.8475,40.1875 C36.4541697,39.9191653 36.9791644,39.5458357 37.4225,39.0675 C37.8658355,38.5891643 38.2099988,38.0233366 38.455,37.37 C38.7000012,36.7166634 38.8225,36.0050039 38.8225,35.235 L38.8225,20.22 L44.2825,20.22 L44.2825,35.445 Z M49.3225,20.22 L56.7425,20.22 L67.2775,37.44 L67.3475,37.44 L67.3475,20.22 L72.8075,20.22 L72.8075,45 L65.6675,45 L54.8525,27.36 L54.7825,27.36 L54.7825,45 L49.3225,45 L49.3225,20.22 Z M78.0575,20.22 L94.8925,20.22 L94.8925,25.26 L83.5175,25.26 L83.5175,29.88 L94.2625,29.88 L94.2625,34.92 L83.5175,34.92 L83.5175,39.96 L95.5225,39.96 L95.5225,45 L78.0575,45 L78.0575,20.22 Z M104.6925,25.05 L97.6225,25.05 L97.6225,20.22 L117.2225,20.22 L117.2225,25.05 L110.1525,25.05 L110.1525,45 L104.6925,45 L104.6925,25.05 Z M120.1975,20.22 L137.0325,20.22 L137.0325,25.26 L125.6575,25.26 L125.6575,29.88 L136.4025,29.88 L136.4025,34.92 L125.6575,34.92 L125.6575,39.96 L137.6625,39.96 L137.6625,45 L120.1975,45 L120.1975,20.22 Z M142.0375,20.22 L151.6275,20.22 C152.887506,20.22 154.083328,20.3424988 155.215,20.5875 C156.346672,20.8325012 157.338329,21.2408305 158.19,21.8125 C159.041671,22.3841695 159.718331,23.1541618 160.22,24.1225 C160.721669,25.0908382 160.9725,26.2983261 160.9725,27.745 C160.9725,29.4950087 160.517505,30.9824939 159.6075,32.2075 C158.697495,33.4325061 157.367509,34.2083317 155.6175,34.535 L161.9175,45 L155.3725,45 L150.1925,35.095 L147.4975,35.095 L147.4975,45 L142.0375,45 L142.0375,20.22 Z M147.4975,30.475 L150.7175,30.475 C151.207502,30.475 151.726664,30.4575002 152.275,30.4225 C152.823336,30.3874998 153.319164,30.2825009 153.7625,30.1075 C154.205836,29.9324991 154.573332,29.6583352 154.865,29.285 C155.156668,28.9116648 155.3025,28.3866701 155.3025,27.71 C155.3025,27.0799969 155.174168,26.5783352 154.9175,26.205 C154.660832,25.8316648 154.334169,25.5458343 153.9375,25.3475 C153.540831,25.1491657 153.085836,25.0150003 152.5725,24.945 C152.059164,24.8749996 151.557502,24.84 151.0675,24.84 L147.4975,24.84 L147.4975,30.475 Z M164.7175,20.22 L174.3075,20.22 C175.567506,20.22 176.763328,20.3424988 177.895,20.5875 C179.026672,20.8325012 180.018329,21.2408305 180.87,21.8125 C181.721671,22.3841695 182.398331,23.1541618 182.9,24.1225 C183.401669,25.0908382 183.6525,26.2983261 183.6525,27.745 C183.6525,29.4950087 183.197505,30.9824939 182.2875,32.2075 C181.377495,33.4325061 180.047509,34.2083317 178.2975,34.535 L184.5975,45 L178.0525,45 L172.8725,35.095 L170.1775,35.095 L170.1775,45 L164.7175,45 L164.7175,20.22 Z M170.1775,30.475 L173.3975,30.475 C173.887502,30.475 174.406664,30.4575002 174.955,30.4225 C175.503336,30.3874998 175.999164,30.2825009 176.4425,30.1075 C176.885836,29.9324991 177.253332,29.6583352 177.545,29.285 C177.836668,28.9116648 177.9825,28.3866701 177.9825,27.71 C177.9825,27.0799969 177.854168,26.5783352 177.5975,26.205 C177.340832,25.8316648 177.014169,25.5458343 176.6175,25.3475 C176.220831,25.1491657 175.765836,25.0150003 175.2525,24.945 C174.739164,24.8749996 174.237502,24.84 173.7475,24.84 L170.1775,24.84 L170.1775,30.475 Z M195.5525,20.22 L200.0675,20.22 L210.8475,45 L204.6875,45 L202.5525,39.75 L192.9275,39.75 L190.8625,45 L184.8425,45 L195.5525,20.22 Z M197.6525,27.43 L194.6425,35.13 L200.6975,35.13 L197.6525,27.43 Z" id="path-9"></path>
        <filter x="-5.9%" y="-45.3%" width="111.9%" height="198.4%" filterUnits="objectBoundingBox" id="filter-10">
            <feOffset dx="0" dy="1" in="SourceAlpha" result="shadowOffsetOuter1"></feOffset>
            <feGaussianBlur stdDeviation="4" in="shadowOffsetOuter1" result="shadowBlurOuter1"></feGaussianBlur>
            <feColorMatrix values="0 0 0 0 0   0 0 0 0 0   0 0 0 0 0  0 0 0 0.4 0" type="matrix" in="shadowBlurOuter1"></feColorMatrix>
        </filter>
        <path d="M24.784,3.672 C24.5599989,3.30933152 24.2613352,3.04533416 23.888,2.88 C23.5146648,2.71466584 23.1253354,2.632 22.72,2.632 C22.4213318,2.632 22.1280014,2.66933296 21.84,2.744 C21.5519986,2.81866704 21.2933345,2.93066592 21.064,3.08 C20.8346655,3.22933408 20.6506674,3.42666544 20.512,3.672 C20.3733326,3.91733456 20.304,4.20533168 20.304,4.536 C20.304,4.79200128 20.3439996,5.01866568 20.424,5.216 C20.5040004,5.41333432 20.6346658,5.5919992 20.816,5.752 C20.9973342,5.9120008 21.2426651,6.06133264 21.552,6.2 C21.8613349,6.33866736 22.2399978,6.47733264 22.688,6.616 C23.1253355,6.75466736 23.5493313,6.9039992 23.96,7.064 C24.3706687,7.2240008 24.7333318,7.42666544 25.048,7.672 C25.3626682,7.91733456 25.6133324,8.22399816 25.8,8.592 C25.9866676,8.96000184 26.08,9.42133056 26.08,9.976 C26.08,10.5413362 25.9680011,11.0319979 25.744,11.448 C25.5199989,11.8640021 25.2240018,12.2079986 24.856,12.48 C24.4879982,12.7520014 24.0640024,12.954666 23.584,13.088 C23.1039976,13.221334 22.6080026,13.288 22.096,13.288 C21.7653317,13.288 21.4346683,13.258667 21.104,13.2 C20.7733317,13.141333 20.4560015,13.0506673 20.152,12.928 C19.8479985,12.8053327 19.562668,12.6453343 19.296,12.448 C19.029332,12.2506657 18.800001,12.0080014 18.608,11.72 L19.76,10.776 C20.0053346,11.1920021 20.3466645,11.5066656 20.784,11.72 C21.2213355,11.9333344 21.6853309,12.04 22.176,12.04 C22.4640014,12.04 22.7546652,11.9973338 23.048,11.912 C23.3413348,11.8266662 23.6053322,11.7013342 23.84,11.536 C24.0746678,11.3706658 24.2666659,11.1653346 24.416,10.92 C24.5653341,10.6746654 24.64,10.3920016 24.64,10.072 C24.64,9.71999824 24.5813339,9.43466776 24.464,9.216 C24.3466661,8.99733224 24.1653346,8.8080008 23.92,8.648 C23.6746654,8.4879992 23.3653352,8.34400064 22.992,8.216 C22.6186648,8.08799936 22.1813358,7.93866752 21.68,7.768 C21.2746646,7.63999936 20.901335,7.49333416 20.56,7.328 C20.218665,7.16266584 19.9226679,6.9600012 19.672,6.72 C19.4213321,6.4799988 19.2240007,6.19200168 19.08,5.856 C18.9359993,5.51999832 18.864,5.11733568 18.864,4.648 C18.864,4.10399728 18.9706656,3.62933536 19.184,3.224 C19.3973344,2.81866464 19.6853315,2.48000136 20.048,2.208 C20.4106685,1.93599864 20.821331,1.73066736 21.28,1.592 C21.738669,1.45333264 22.2186642,1.384 22.72,1.384 C23.3600032,1.384 23.9439974,1.48266568 24.472,1.68 C25.0000026,1.87733432 25.4719979,2.22133088 25.888,2.712 L24.784,3.672 Z M28.08,0.904 L29.328,0.904 L29.328,8.808 L32.736,5.512 L34.512,5.512 L30.896,8.92 L34.88,13 L33.04,13 L29.328,9.064 L29.328,13 L28.08,13 L28.08,0.904 Z M36.192,5.512 L37.44,5.512 L37.44,13 L36.192,13 L36.192,5.512 Z M35.904,2.584 C35.904,2.33866544 35.9919991,2.12533424 36.168,1.944 C36.3440009,1.76266576 36.5599987,1.672 36.816,1.672 C37.0720013,1.672 37.2879991,1.76266576 37.464,1.944 C37.6400009,2.12533424 37.728,2.33866544 37.728,2.584 C37.728,2.850668 37.6426675,3.06933248 37.472,3.24 C37.3013325,3.41066752 37.082668,3.496 36.816,3.496 C36.549332,3.496 36.3306675,3.41066752 36.16,3.24 C35.9893325,3.06933248 35.904,2.850668 35.904,2.584 Z M39.92,7.288 C39.92,6.94666496 39.9093334,6.62666816 39.888,6.328 C39.8666666,6.02933184 39.856,5.75733456 39.856,5.512 L41.04,5.512 C41.04,5.71466768 41.0453333,5.91733232 41.056,6.12 C41.0666667,6.32266768 41.072,6.5306656 41.072,6.744 L41.104,6.744 C41.1893338,6.56266576 41.3093326,6.38666752 41.464,6.216 C41.6186674,6.04533248 41.8026656,5.893334 42.016,5.76 C42.2293344,5.626666 42.469332,5.5200004 42.736,5.44 C43.002668,5.3599996 43.2906651,5.32 43.6,5.32 C44.0906691,5.32 44.5146649,5.39466592 44.872,5.544 C45.2293351,5.69333408 45.5253322,5.901332 45.76,6.168 C45.9946678,6.434668 46.1679994,6.75733144 46.28,7.136 C46.3920006,7.51466856 46.448,7.92799776 46.448,8.376 L46.448,13 L45.2,13 L45.2,8.504 C45.2,7.87466352 45.0613347,7.37866848 44.784,7.016 C44.5066653,6.65333152 44.0746696,6.472 43.488,6.472 C43.0826646,6.472 42.7333348,6.54133264 42.44,6.68 C42.1466652,6.81866736 41.9066676,7.01599872 41.72,7.272 C41.5333324,7.52800128 41.3946671,7.83199824 41.304,8.184 C41.2133329,8.53600176 41.168,8.9253312 41.168,9.352 L41.168,13 L39.92,13 L39.92,7.288 Z M48.976,11.032 C49.2213346,11.3413349 49.4906652,11.5866658 49.784,11.768 C50.0773348,11.9493342 50.4479978,12.04 50.896,12.04 C51.088001,12.04 51.2826657,12.0186669 51.48,11.976 C51.6773343,11.9333331 51.8559992,11.8640005 52.016,11.768 C52.1760008,11.6719995 52.3039995,11.5520007 52.4,11.408 C52.4960005,11.2639993 52.544,11.0906677 52.544,10.888 C52.544,10.6853323 52.4986671,10.5200006 52.408,10.392 C52.3173329,10.2639994 52.1973341,10.1546671 52.048,10.064 C51.8986659,9.97333288 51.728001,9.9013336 51.536,9.848 C51.343999,9.7946664 51.1466677,9.74666688 50.944,9.704 C50.5919982,9.62933296 50.2560016,9.54400048 49.936,9.448 C49.6159984,9.35199952 49.3360012,9.22666744 49.096,9.072 C48.8559988,8.91733256 48.6640007,8.71733456 48.52,8.472 C48.3759993,8.22666544 48.304,7.91200192 48.304,7.528 C48.304,7.16533152 48.3839992,6.84533472 48.544,6.568 C48.7040008,6.29066528 48.917332,6.06133424 49.184,5.88 C49.450668,5.69866576 49.7493317,5.56000048 50.08,5.464 C50.4106683,5.36799952 50.7519982,5.32 51.104,5.32 C51.637336,5.32 52.1306644,5.4266656 52.584,5.64 C53.0373356,5.8533344 53.3919987,6.1999976 53.648,6.68 L52.608,7.368 C52.4479992,7.101332 52.2373346,6.88533416 51.976,6.72 C51.7146654,6.55466584 51.3973352,6.472 51.024,6.472 C50.8533325,6.472 50.6800009,6.49333312 50.504,6.536 C50.3279991,6.57866688 50.1706674,6.64266624 50.032,6.728 C49.8933326,6.81333376 49.7786671,6.922666 49.688,7.056 C49.5973329,7.189334 49.552,7.34133248 49.552,7.512 C49.552,7.6720008 49.6026662,7.80799944 49.704,7.92 C49.8053338,8.03200056 49.9439991,8.13066624 50.12,8.216 C50.2960009,8.30133376 50.4986655,8.37599968 50.728,8.44 C50.9573345,8.50400032 51.1946654,8.55733312 51.44,8.6 C51.7706683,8.66400032 52.0853318,8.74666616 52.384,8.848 C52.6826682,8.94933384 52.9439989,9.08533248 53.168,9.256 C53.3920011,9.42666752 53.5679994,9.63999872 53.696,9.896 C53.8240006,10.1520013 53.888,10.4666648 53.888,10.84 C53.888,11.2666688 53.8026675,11.6293318 53.632,11.928 C53.4613325,12.2266682 53.2346681,12.4693324 52.952,12.656 C52.6693319,12.8426676 52.3493351,12.9786662 51.992,13.064 C51.6346649,13.1493338 51.2693352,13.192 50.896,13.192 C50.2559968,13.192 49.7040023,13.0933343 49.24,12.896 C48.7759977,12.6986657 48.3573352,12.333336 47.984,11.8 L48.976,11.032 Z M59.648,9.256 C59.648,8.6693304 59.7493323,8.1360024 59.952,7.656 C60.1546677,7.1759976 60.4319982,6.7626684 60.784,6.416 C61.1360018,6.0693316 61.5573309,5.80000096 62.048,5.608 C62.5386691,5.41599904 63.0719971,5.32 63.648,5.32 C64.2240029,5.32 64.7573309,5.41599904 65.248,5.608 C65.7386691,5.80000096 66.1599982,6.0693316 66.512,6.416 C66.8640018,6.7626684 67.1413323,7.1759976 67.344,7.656 C67.5466677,8.1360024 67.648,8.6693304 67.648,9.256 C67.648,9.8426696 67.5466677,10.3759976 67.344,10.856 C67.1413323,11.3360024 66.8640018,11.7493316 66.512,12.096 C66.1599982,12.4426684 65.7386691,12.711999 65.248,12.904 C64.7573309,13.096001 64.2240029,13.192 63.648,13.192 C63.0719971,13.192 62.5386691,13.096001 62.048,12.904 C61.5573309,12.711999 61.1360018,12.4426684 60.784,12.096 C60.4319982,11.7493316 60.1546677,11.3360024 59.952,10.856 C59.7493323,10.3759976 59.648,9.8426696 59.648,9.256 Z M60.992,9.256 C60.992,9.65066864 61.0533327,10.0159983 61.176,10.352 C61.2986673,10.6880017 61.4773322,10.9813321 61.712,11.232 C61.9466678,11.4826679 62.226665,11.6799993 62.552,11.824 C62.877335,11.9680007 63.2426646,12.04 63.648,12.04 C64.0533354,12.04 64.418665,11.9680007 64.744,11.824 C65.069335,11.6799993 65.3493322,11.4826679 65.584,11.232 C65.8186678,10.9813321 65.9973327,10.6880017 66.12,10.352 C66.2426673,10.0159983 66.304,9.65066864 66.304,9.256 C66.304,8.86133136 66.2426673,8.49600168 66.12,8.16 C65.9973327,7.82399832 65.8186678,7.53066792 65.584,7.28 C65.3493322,7.02933208 65.069335,6.83200072 64.744,6.688 C64.418665,6.54399928 64.0533354,6.472 63.648,6.472 C63.2426646,6.472 62.877335,6.54399928 62.552,6.688 C62.226665,6.83200072 61.9466678,7.02933208 61.712,7.28 C61.4773322,7.53066792 61.2986673,7.82399832 61.176,8.16 C61.0533327,8.49600168 60.992,8.86133136 60.992,9.256 Z M70.224,6.568 L68.592,6.568 L68.592,5.512 L70.224,5.512 L70.224,3.832 C70.224,3.37333104 70.2666662,2.95466856 70.352,2.576 C70.4373338,2.19733144 70.583999,1.86933472 70.792,1.592 C71.000001,1.31466528 71.274665,1.09866744 71.616,0.944 C71.957335,0.78933256 72.3786642,0.712 72.88,0.712 C73.0400008,0.712 73.2106658,0.72799984 73.392,0.76 C73.5733342,0.79200016 73.7226661,0.83999968 73.84,0.904 L73.664,2.024 C73.3653318,1.9173328 73.082668,1.864 72.816,1.864 C72.4959984,1.864 72.2453342,1.91999944 72.064,2.032 C71.8826658,2.14400056 71.7466671,2.29866568 71.656,2.496 C71.5653329,2.69333432 71.5120001,2.93066528 71.496,3.208 C71.4799999,3.48533472 71.472,3.7839984 71.472,4.104 L71.472,5.512 L73.296,5.512 L73.296,6.568 L71.472,6.568 L71.472,13 L70.224,13 L70.224,6.568 Z" id="path-11"></path>
        <filter x="-12.7%" y="-39.8%" width="125.3%" height="211.3%" filterUnits="objectBoundingBox" id="filter-12">
            <feOffset dx="0" dy="2" in="SourceAlpha" result="shadowOffsetOuter1"></feOffset>
            <feGaussianBlur stdDeviation="2" in="shadowOffsetOuter1" result="shadowBlurOuter1"></feGaussianBlur>
            <feColorMatrix values="0 0 0 0 0   0 0 0 0 0   0 0 0 0 0  0 0 0 0.5 0" type="matrix" in="shadowBlurOuter1"></feColorMatrix>
        </filter>
    </defs>
    <g id="LOGO" stroke="none" stroke-width="1" fill="none" fill-rule="evenodd">
        <g id="runeterra-logo">
            <g id="socle" transform="translate(10.000000, 129.000000)">
                <polygon id="upper" fill="url(#linearGradient-1)" points="0 -1.13686838e-13 81 -5.68434189e-14 109 35 123 20 133 5.04870979e-29 210 -5.68434189e-14 210 8 159 8 109 46.5 58 8 0 8"></polygon>
                <polyline id="yellow-path" stroke="#CBB786" stroke-width="6" points="0 11 57 11 109 48 160 11 210 11"></polyline>
            </g>
            <g id="diamant-rouge" transform="translate(88.000000, 10.000000)">
                <g id="Group-Copy">
                    <polygon id="Path-2" fill="#D71A3A" points="11.8421053 25.4528302 26.3157895 4.01886792 35.5263158 0 35.5263158 40.1886792 43.4210526 50.9056604 50 60.2830189 50 111.188679 39.4736842 133.962264 31.5789474 142 22.3684211 129.943396 9.21052632 113.867925 0 105.830189 9.21052632 48.2264151"></polygon>
                    <polygon id="Path-3" fill="url(#linearGradient-2)" points="35.5263158 -1.42108547e-14 23.6842105 17.4150943 11.8421053 25.4528302 26.3157895 4.01886792"></polygon>
                    <polygon id="Path-4" fill="url(#linearGradient-3)" points="35.5263158 3.55271368e-15 23.6842105 17.4150943 28.9473684 38.8490566 43.4210526 50.9056604 35.5263158 40.1886792"></polygon>
                    <polygon id="Path-5" fill="url(#linearGradient-4)" points="28.9473684 38.8490566 43.4210526 50.9056604 23.6842105 71"></polygon>
                    <polygon id="Path-7" fill="url(#linearGradient-5)" points="9.21052632 48.2264151 23.6842105 71 28.9473684 38.8490566 23.6842105 17.4150943 11.8421053 25.4528302"></polygon>
                    <path d="M0,105.830189 L23.6842105,71 L43.4210526,50.9056604 C47.8070175,57.1572327 50,60.2830189 50,60.2830189 C50,60.2830189 50,77.2515723 50,111.188679 L39.4736842,133.962264 L31.5789474,142 L9.21052632,113.867925 L0,105.830189 Z" id="Path-9" fill="url(#linearGradient-6)"></path>
                    <polyline id="Path-11" stroke-opacity="0.5" stroke="#7C202D" stroke-width="0.400000006" points="35.5263158 0 23.6842105 17.4150943 11.8421053 25.4528302"></polyline>
                    <path d="M28.9473684,38.8490566 L23.6842105,17.4150943" id="Path-12" stroke="#971127" stroke-width="0.400000006"></path>
                    <polygon id="Path-6" fill="url(#linearGradient-7)" points="23.6842105 71 0 105.830189 9.21052632 48.2264151"></polygon>
                    <polyline id="Path-10" stroke="#F15A7C" stroke-width="0.300000012" points="0 105.830189 23.6842105 71 43.4210526 50.9056604 28.9473684 38.8490566"></polyline>
                    <polygon id="Path-13" fill="url(#linearGradient-8)" points="39.4736842 133.962264 10.5263158 112.528302 0 105.830189 9.21052632 113.867925 31.5789474 142"></polygon>
                </g>
            </g>
            <g id="text--outlines" transform="translate(9.000000, 72.000000)">
                <g id="Runeterra">
                    <use fill="black" fill-opacity="1" filter="url(#filter-10)" xlink:href="#path-9"></use>
                    <use fill="#FFFFFF" fill-rule="evenodd" xlink:href="#path-9"></use>
                </g>
                <g id="Skins-of">
                    <use fill="black" fill-opacity="1" filter="url(#filter-12)" xlink:href="#path-11"></use>
                    <use fill="#FFFFFF" fill-rule="evenodd" xlink:href="#path-11"></use>
                </g>
            </g>
        </g>
    </g>
</svg>