<?xml version="1.0" encoding="UTF-8"?>
<svg width="191px" height="106px" viewBox="0 0 191 106" version="1.1" xmlns="http://www.w3.org/2000/svg" xmlns:xlink="http://www.w3.org/1999/xlink">
    <!-- Generator: Sketch 46.2 (44496) - http://www.bohemiancoding.com/sketch -->
    <title>logo</title>
    <desc>Created with Sketch.</desc>
    <defs>
        <linearGradient x1="76.0823141%" y1="50%" x2="36.0288592%" y2="18.5402623%" id="linearGradient-1">
            <stop stop-color="#7C0D2D" offset="0%"></stop>
            <stop stop-color="#F63256" offset="100%"></stop>
        </linearGradient>
        <linearGradient x1="0%" y1="32.5832881%" x2="55.4060732%" y2="63.4507333%" id="linearGradient-2">
            <stop stop-color="#820211" offset="0%"></stop>
            <stop stop-color="#790016" stop-opacity="0.5" offset="100%"></stop>
        </linearGradient>
        <linearGradient x1="50%" y1="6.19746228%" x2="26.2645485%" y2="100%" id="linearGradient-3">
            <stop stop-color="#FA769D" stop-opacity="0.2" offset="0%"></stop>
            <stop stop-color="#A60018" stop-opacity="0.5" offset="100%"></stop>
        </linearGradient>
        <linearGradient x1="50%" y1="100%" x2="50%" y2="0%" id="linearGradient-4">
            <stop stop-color="#D80A4A" offset="0%"></stop>
            <stop stop-color="#AF0424" offset="100%"></stop>
        </linearGradient>
        <linearGradient x1="50%" y1="89.3694375%" x2="50%" y2="3.061617e-15%" id="linearGradient-5">
            <stop stop-color="#FF628A" offset="0%"></stop>
            <stop stop-color="#E22043" offset="36.4413772%"></stop>
            <stop stop-color="#A70119" offset="100%"></stop>
        </linearGradient>
        <linearGradient x1="50%" y1="100%" x2="65.2593786%" y2="-8.06461476%" id="linearGradient-6">
            <stop stop-color="#FD5C75" stop-opacity="0.5" offset="0%"></stop>
            <stop stop-color="#C8082C" offset="100%"></stop>
        </linearGradient>
        <linearGradient x1="50%" y1="100%" x2="50%" y2="3.061617e-15%" id="linearGradient-7">
            <stop stop-color="#DF0043" offset="0%"></stop>
            <stop stop-color="#BC0020" offset="100%"></stop>
        </linearGradient>
    </defs>
    <g id="LOGO" stroke="none" stroke-width="1" fill="none" fill-rule="evenodd">
        <g id="Logo-Copy" transform="translate(-325.000000, -23.000000)">
            <g id="logo" transform="translate(326.000000, 23.000000)">
                <path d="M65.428,60.328 C60.72,60.328 57.244,62.968 57.244,66.576 C57.244,69.876 59.224,71.944 64.196,73.264 C68.772,74.496 69.96,75.376 69.96,77.928 C69.96,80.084 67.892,81.536 64.812,81.536 C62.216,81.536 60.104,80.656 58.3,79.16 L56.232,81.492 C58.256,83.252 60.984,84.528 64.9,84.528 C69.564,84.528 73.832,82.284 73.832,77.576 C73.832,73.528 71.104,71.68 66.22,70.404 C62.392,69.392 61.072,68.512 61.072,66.532 C61.072,64.552 62.832,63.276 65.56,63.276 C67.76,63.276 69.52,63.936 71.544,65.432 L73.172,62.968 C70.972,61.296 68.596,60.328 65.428,60.328 Z M83.512,84 L83.512,51.088 L79.816,51.528 L79.816,84 L83.512,84 Z M87.912,71.108 L96.712,60.856 L92.576,60.856 L83.776,71.372 L93.28,84 L97.724,84 L87.912,71.108 Z M103.884,49.944 C102.344,49.944 101.288,51.044 101.288,52.496 C101.288,53.948 102.344,55.048 103.884,55.048 C105.468,55.048 106.524,53.948 106.524,52.496 C106.524,51.044 105.468,49.944 103.884,49.944 Z M105.776,84 L105.776,60.856 L102.08,60.856 L102.08,84 L105.776,84 Z M125.092,60.328 C121.968,60.328 119.548,61.956 117.832,64.332 L117.524,60.856 L114.356,60.856 L114.356,84 L118.052,84 L118.052,67.5 C119.636,64.948 121.484,63.232 124.212,63.232 C126.588,63.232 128.04,64.376 128.04,67.94 L128.04,84 L131.736,84 L131.736,67.412 C131.736,63.012 129.316,60.328 125.092,60.328 Z M151.624,52.936 C153.618677,52.936 155.385992,53.2366637 156.926,53.838 C158.466008,54.4393363 159.925326,55.3266608 161.304,56.5 L158.18,59.756 C157.094661,58.9053291 156.075338,58.2893352 155.122,57.908 C154.168662,57.5266648 153.06134,57.336 151.8,57.336 C149.453322,57.336 147.532007,58.2746573 146.036,60.152 C144.539993,62.0293427 143.792,64.9039806 143.792,68.776 C143.792,72.8240202 144.385994,75.7426577 145.574,77.532 C146.762006,79.3213423 148.573321,80.216 151.008,80.216 C152.856009,80.216 154.469326,79.820004 155.848,79.028 L155.848,71.108 L151.272,71.108 L150.656,66.796 L161.568,66.796 L161.568,81.668 C158.28265,83.6626766 154.792018,84.66 151.096,84.66 C146.754645,84.66 143.432678,83.3106802 141.13,80.612 C138.827322,77.9133198 137.676,73.968026 137.676,68.776 C137.676,65.4613168 138.299327,62.6086786 139.546,60.218 C140.792673,57.8273214 142.471989,56.0160062 144.584,54.784 C146.696011,53.5519938 149.042654,52.936 151.624,52.936 Z M179.696,52.936 C181.690677,52.936 183.457992,53.2366637 184.998,53.838 C186.538008,54.4393363 187.997326,55.3266608 189.376,56.5 L186.252,59.756 C185.166661,58.9053291 184.147338,58.2893352 183.194,57.908 C182.240662,57.5266648 181.13334,57.336 179.872,57.336 C177.525322,57.336 175.604007,58.2746573 174.108,60.152 C172.611993,62.0293427 171.864,64.9039806 171.864,68.776 C171.864,72.8240202 172.457994,75.7426577 173.646,77.532 C174.834006,79.3213423 176.645321,80.216 179.08,80.216 C180.928009,80.216 182.541326,79.820004 183.92,79.028 L183.92,71.108 L179.344,71.108 L178.728,66.796 L189.64,66.796 L189.64,81.668 C186.35465,83.6626766 182.864018,84.66 179.168,84.66 C174.826645,84.66 171.504678,83.3106802 169.202,80.612 C166.899322,77.9133198 165.748,73.968026 165.748,68.776 C165.748,65.4613168 166.371327,62.6086786 167.618,60.218 C168.864673,57.8273214 170.543989,56.0160062 172.656,54.784 C174.768011,53.5519938 177.114654,52.936 179.696,52.936 Z" id="skinGG-Copy" fill="#FFFFFF"></path>
                <g id="diamant-rouge">
                    <g id="Group-Copy">
                        <polygon id="Path-2" fill="#D71A3A" points="9 19 20 3 27 0 27 30 33 38 38 45 38 83 30 100 24 106 17 97 7 85 0 79 7 36"></polygon>
                        <polygon id="Path-3" fill="url(#linearGradient-1)" points="27 -1.42108547e-14 18 13 9 19 20 3"></polygon>
                        <polygon id="Path-4" fill="url(#linearGradient-2)" points="27 3.55271368e-15 18 13 22 29 33 38 27 30"></polygon>
                        <polygon id="Path-5" fill="url(#linearGradient-3)" points="22 29 33 38 18 53"></polygon>
                        <polygon id="Path-7" fill="url(#linearGradient-4)" points="7 36 18 53 22 29 18 13 9 19"></polygon>
                        <path d="M0,79 L18,53 L33,38 C36.3333333,42.6666667 38,45 38,45 C38,45 38,57.6666667 38,83 L30,100 L24,106 L7,85 L0,79 Z" id="Path-9" fill="url(#linearGradient-5)"></path>
                        <polyline id="Path-11" stroke-opacity="0.5" stroke="#7C202D" stroke-width="0.400000006" points="27 0 18 13 9 19"></polyline>
                        <path d="M22,29 L18,13" id="Path-12" stroke="#971127" stroke-width="0.400000006"></path>
                        <polygon id="Path-6" fill="url(#linearGradient-6)" points="18 53 0 79 7 36"></polygon>
                        <polyline id="Path-10" stroke="#F15A7C" stroke-width="0.300000012" points="0 79 18 53 33 38 22 29"></polyline>
                        <polygon id="Path-13" fill="url(#linearGradient-7)" points="30 100 8 84 0 79 7 85 24 106"></polygon>
                    </g>
                </g>
            </g>
        </g>
    </g>
</svg>