<?xml version="1.0" encoding="UTF-8"?>
<svg width="297px" height="300px" viewBox="0 0 297 300" version="1.1" xmlns="http://www.w3.org/2000/svg" xmlns:xlink="http://www.w3.org/1999/xlink">
    <!-- Generator: Sketch 48.2 (47327) - http://www.bohemiancoding.com/sketch -->
    <title>social_discord</title>
    <desc>Created with Sketch.</desc>
    <defs></defs>
    <g id="LOGO" stroke="none" stroke-width="1" fill="none" fill-rule="evenodd">
        <g id="social_discord" fill="#7289DA" fill-rule="nonzero">
            <g id="discord" transform="translate(20.000000, 4.000000)">
                <path d="M226.011,0 L29.99,0 C13.459,0 0,13.458 0,30.135 L0,227.913 C0,244.59 13.458,258.048 29.989,258.048 L195.877,258.048 L188.123,230.985 L206.848,248.393 L224.548,264.777 L256,292.571 L256,30.135 C256,13.458 242.542,0 226.011,0 Z M169.545,191.05 C169.545,191.05 164.279,184.759 159.89,179.2 C179.054,173.787 186.368,161.792 186.368,161.792 C180.37,165.742 174.665,168.522 169.545,170.422 C162.231,173.495 155.209,175.542 148.334,176.713 C134.29,179.346 121.417,178.615 110.446,176.567 C102.107,174.957 94.939,172.617 88.942,170.277 C85.577,168.96 81.92,167.351 78.262,165.303 C77.824,165.01 77.385,164.864 76.946,164.571 C76.654,164.425 76.507,164.279 76.361,164.133 C73.728,162.67 72.265,161.646 72.265,161.646 C72.265,161.646 79.287,173.349 97.865,178.907 C93.477,184.467 88.064,191.049 88.064,191.049 C55.734,190.025 43.447,168.814 43.447,168.814 C43.447,121.71 64.512,83.529 64.512,83.529 C85.577,67.73 105.618,68.169 105.618,68.169 L107.081,69.925 C80.75,77.53 68.608,89.088 68.608,89.088 C68.608,89.088 71.826,87.333 77.238,84.846 C92.891,77.97 105.326,76.069 110.446,75.63 C111.323,75.483 112.055,75.337 112.933,75.337 C122.735995,74.0599561 132.656683,73.9619243 142.483,75.045 C156.379,76.654 171.301,80.75 186.514,89.088 C186.514,89.088 174.958,78.117 150.089,70.51 L152.137,68.17 C152.137,68.17 172.178,67.73 193.243,83.53 C193.243,83.53 214.309,121.71 214.309,168.814 C214.309,168.814 201.874,190.025 169.545,191.049 L169.545,191.05 Z M101.522,122.734 C93.184,122.734 86.602,130.048 86.602,138.971 C86.602,147.895 93.33,155.209 101.522,155.209 C109.861,155.209 116.443,147.895 116.443,138.971 C116.59,130.048 109.861,122.734 101.523,122.734 L101.522,122.734 Z M154.917,122.734 C146.578,122.734 139.995,130.048 139.995,138.971 C139.995,147.895 146.725,155.209 154.917,155.209 C163.255,155.209 169.837,147.895 169.837,138.971 C169.837,130.048 163.255,122.734 154.917,122.734 Z" id="Shape"></path>
            </g>
        </g>
    </g>
</svg>